<svg width="505" height="508" viewBox="0 0 505 508" fill="none" xmlns="http://www.w3.org/2000/svg">
<rect x="116.526" y="59.9275" width="383.928" height="383.928" rx="12.71" transform="rotate(10.3287 116.526 59.9275)" fill="#AFE2FF" stroke="black" stroke-width="2.62965"/>
<rect x="105.246" y="43.6001" width="383.928" height="383.928" rx="12.71" transform="rotate(10.3287 105.246 43.6001)" fill="#5EC5FF"/>
<rect x="105.246" y="43.6001" width="383.928" height="383.928" rx="12.71" transform="rotate(10.3287 105.246 43.6001)" fill="#FAFAFA"/>
<rect x="105.246" y="43.6001" width="383.928" height="383.928" rx="12.71" transform="rotate(10.3287 105.246 43.6001)" stroke="black" stroke-width="2.62965"/>
<path d="M190.341 397.251L207.634 380.274L194.719 377.92L195.846 371.739L219.743 376.094L219.14 379.405L201.782 396.428L216.076 399.033L214.949 405.215L189.728 400.618L190.341 397.251ZM225.536 407.828C223.291 407.419 221.338 406.455 219.676 404.935C218.014 403.416 217.465 401.111 218.028 398.02C218.705 394.304 220.712 391.952 224.047 390.963C227.389 389.938 231.857 389.934 237.449 390.954L237.822 388.912C238.056 387.624 237.943 386.577 237.482 385.77C237.057 384.971 236.054 384.427 234.472 384.138C232.779 383.83 231.518 383.866 230.688 384.247C229.896 384.635 229.435 385.178 229.308 385.877L229.157 386.705L221.872 385.378C221.875 385.15 221.931 384.742 222.038 384.153C222.481 381.725 223.903 379.969 226.305 378.887C228.744 377.81 231.748 377.598 235.317 378.248C239.291 378.972 242.105 380.321 243.76 382.296C245.452 384.277 246.02 386.794 245.463 389.848L243.13 402.652C243.009 403.314 243.102 403.845 243.41 404.243C243.724 404.604 244.157 404.835 244.709 404.936L246.255 405.217L245.289 410.516C244.004 410.89 242.497 410.919 240.768 410.604C239.259 410.329 238.05 409.767 237.141 408.917C236.268 408.073 235.759 407.011 235.612 405.73L235.281 405.67C233.986 406.726 232.579 407.458 231.06 407.866C229.585 408.243 227.743 408.23 225.536 407.828ZM228.995 402.3C231.129 402.689 232.8 402.385 234.008 401.389C235.223 400.356 236.011 398.846 236.373 396.859L236.534 395.976C229.948 394.776 226.387 395.647 225.85 398.591C225.683 399.511 225.843 400.3 226.331 400.959C226.856 401.625 227.744 402.072 228.995 402.3ZM239.11 368.39L246.45 369.728L246.475 369.903L239.217 375.937L233.422 374.88L239.11 368.39ZM253.832 382.307L260.289 383.483L260.042 388.285L260.428 388.356C261.355 386.814 262.403 385.655 263.57 384.88C264.738 384.104 266.132 383.864 267.75 384.159C268.817 384.353 269.744 384.693 270.53 385.179L269.242 392.243L267.145 391.861C264.68 391.411 262.771 391.767 261.42 392.927C260.074 394.051 259.154 395.974 258.657 398.696L256.103 412.715L248.542 411.337L253.832 382.307ZM254.82 371.253L260.946 372.37L263.343 376.741L267.072 373.486L273.199 374.603L266.046 380.997L259.313 379.77L254.82 371.253ZM274.124 386.005L281.685 387.383L276.394 416.413L268.833 415.035L274.124 386.005ZM281.404 376.098L288.744 377.436L288.769 377.611L281.511 383.645L275.716 382.588L281.404 376.098Z" fill="black"/>
<path d="M142.151 291.386L183.802 298.977L203.038 193.426L161.128 185.788L165.136 163.798C173.054 164.35 182.98 163.665 194.913 161.741C207.019 159.849 218.028 157.133 227.939 153.593L246.307 156.941L219.244 305.436L257.274 312.367L251.993 341.342L136.87 320.361L142.151 291.386ZM325.33 357.915C304.978 354.206 290.148 346.603 280.839 335.105C271.561 323.435 268.415 309.408 271.401 293.024L272.25 288.367L308.21 294.92L307.219 300.353C305.836 307.942 307.096 314.23 310.998 319.218C314.932 324.033 321.297 327.243 330.093 328.846C338.026 330.292 344.683 329.456 350.063 326.337C355.474 323.047 358.918 317.348 360.395 309.242C362.124 299.757 360.747 292.645 356.264 287.908C351.782 283.171 345.229 280.016 336.605 278.445L323.411 276.04L328.692 247.065L342.662 249.611C349.733 250.9 355.888 249.883 361.127 246.561C366.397 243.067 369.77 237.266 371.248 229.16C372.599 221.744 371.622 215.864 368.315 211.519C365.181 207.206 360.078 204.405 353.007 203.116C345.591 201.764 339.467 202.608 334.636 205.648C329.837 208.516 326.777 213.571 325.457 220.815L324.561 225.731L288.602 219.177L289.922 211.933C291.682 202.275 295.723 194.28 302.045 187.948C308.398 181.443 316.334 177.009 325.853 174.645C335.575 172.14 346.128 171.925 357.511 174C375.62 177.3 389.252 184.15 398.404 194.55C407.73 204.981 410.978 217.958 408.149 233.48C406.358 243.311 402.379 250.961 396.215 256.431C390.254 261.76 382.499 265.692 372.948 268.228L372.76 269.263C381.884 273.955 388.616 280.528 392.956 288.981C397.295 297.435 398.444 307.267 396.401 318.477C394.515 328.825 390.191 337.393 383.43 344.18C376.873 350.825 368.561 355.369 358.493 357.811C348.457 360.08 337.402 360.115 325.33 357.915Z" fill="black"/>
</svg>
