<svg width="434" height="437" viewBox="0 0 434 437" fill="none" xmlns="http://www.w3.org/2000/svg">
<rect x="47.7719" y="51.2781" width="383.928" height="383.928" rx="12.71" fill="#AFE2FF" stroke="black" stroke-width="2.62965"/>
<rect x="33.7471" y="37.2379" width="383.928" height="383.928" rx="12.71" fill="#5EC5FF"/>
<rect x="33.7471" y="37.2379" width="383.928" height="383.928" rx="12.71" fill="#FAFAFA"/>
<rect x="33.7471" y="37.2379" width="383.928" height="383.928" rx="12.71" stroke="black" stroke-width="2.62965"/>
<path d="M180.871 369.901L194.839 350.098H181.712V343.815H206.003V347.181L191.978 367.04H206.508V373.323H180.871V369.901ZM217.391 373.996C215.11 373.996 213.015 373.398 211.108 372.201C209.201 371.004 208.247 368.835 208.247 365.694C208.247 361.916 209.799 359.242 212.903 357.671C216.007 356.063 220.402 355.259 226.087 355.259V353.183C226.087 351.874 225.787 350.865 225.189 350.154C224.628 349.443 223.543 349.088 221.935 349.088C220.215 349.088 218.981 349.35 218.233 349.874C217.522 350.397 217.167 351.014 217.167 351.725V352.566H209.762C209.724 352.342 209.706 351.931 209.706 351.332C209.706 348.864 210.79 346.882 212.959 345.386C215.166 343.89 218.083 343.142 221.711 343.142C225.75 343.142 228.761 343.964 230.743 345.61C232.762 347.256 233.772 349.63 233.772 352.735V365.75C233.772 366.423 233.959 366.928 234.333 367.264C234.707 367.563 235.175 367.713 235.736 367.713H237.306V373.099C236.11 373.697 234.632 373.996 232.875 373.996C231.341 373.996 230.051 373.66 229.004 372.986C227.994 372.313 227.302 371.36 226.928 370.125H226.591C225.507 371.397 224.254 372.369 222.833 373.043C221.449 373.678 219.635 373.996 217.391 373.996ZM219.803 367.937C221.973 367.937 223.562 367.339 224.572 366.142C225.582 364.908 226.087 363.281 226.087 361.262V360.364C219.392 360.364 216.045 361.86 216.045 364.852C216.045 365.787 216.344 366.535 216.942 367.096C217.578 367.657 218.532 367.937 219.803 367.937ZM223.674 332.763H231.135L231.192 332.932L225.133 340.168H219.242L223.674 332.763ZM240.653 343.815H247.217L247.834 348.583H248.227C248.863 346.9 249.685 345.573 250.695 344.6C251.705 343.628 253.033 343.142 254.678 343.142C255.763 343.142 256.735 343.31 257.595 343.647V350.827H255.464C252.958 350.827 251.144 351.519 250.022 352.903C248.9 354.249 248.339 356.306 248.339 359.074V373.323H240.653V343.815ZM239.644 332.763H245.871L249.012 336.634L252.098 332.763H258.325L252.434 340.337H245.59L239.644 332.763ZM261.28 343.815H268.965V373.323H261.28V343.815ZM266.665 332.763H274.126L274.182 332.932L268.124 340.168H262.233L266.665 332.763Z" fill="black"/>
<path d="M232.724 295.514C210.81 295.514 194.243 288.852 183.023 275.529C171.804 262.03 166.194 239.327 166.194 207.421C166.194 183.053 168.736 163.593 173.82 149.043C178.904 134.492 186.179 124.149 195.646 118.013C205.112 111.877 216.946 108.809 231.146 108.809C250.079 108.809 264.192 113.981 273.483 124.324C282.95 134.667 287.683 148.341 287.683 165.346H251.131C251.131 156.406 249.466 149.656 246.135 145.098C242.804 140.365 237.369 137.998 229.831 137.998C222.293 137.998 216.595 140.102 212.738 144.309C209.057 148.341 206.603 154.039 205.375 161.402C204.148 168.765 203.447 178.67 203.272 191.117C207.479 187.085 212.738 183.754 219.05 181.124C225.536 178.319 232.548 176.917 240.087 176.917C257.968 176.917 271.292 182.264 280.057 192.958C288.998 203.652 293.469 218.027 293.469 236.084C293.469 248.005 290.839 258.524 285.58 267.64C280.32 276.581 273.045 283.505 263.754 288.414C254.637 293.147 244.294 295.514 232.724 295.514ZM231.146 266.062C239.561 266.062 245.872 263.345 250.079 257.91C254.287 252.3 256.391 245.025 256.391 236.084C256.391 226.617 254.287 219.167 250.079 213.732C245.872 208.297 239.561 205.58 231.146 205.58C222.731 205.58 216.332 208.297 211.95 213.732C207.567 219.167 205.375 226.617 205.375 236.084C205.375 245.025 207.567 252.3 211.95 257.91C216.332 263.345 222.731 266.062 231.146 266.062Z" fill="black"/>
<circle cx="46.2522" cy="48.7413" r="40.7595" transform="rotate(10 46.2522 48.7413)" fill="#FF3A00" stroke="black" stroke-width="2.62965"/>
<path d="M22.722 51.0194C22.8608 50.2321 23.1576 49.5582 23.6125 48.9975C24.0698 48.4231 24.5885 47.9449 25.1685 47.563C25.7624 47.1835 26.5191 46.7686 27.4387 46.3184C28.2381 45.904 28.8697 45.5525 29.3336 45.264C29.8112 44.978 30.2259 44.6452 30.5777 44.2658C31.0179 43.788 31.2977 43.2107 31.4171 42.5339C31.495 42.092 31.3975 41.676 31.1244 41.2861C30.8676 40.8848 30.4354 40.6306 29.8277 40.5234C28.4603 40.2823 27.661 40.8178 27.4296 42.1299L27.2798 42.9793L24.4622 42.4825C24.4508 42.2242 24.4719 41.9431 24.5255 41.6392C24.7788 40.2028 25.4452 39.2095 26.5249 38.6593C27.6183 38.1116 28.8971 37.9668 30.3611 38.2249C31.6456 38.4514 32.5893 38.8742 33.1922 39.4932C33.7951 40.1122 34.1454 40.7507 34.243 41.4087C34.3544 42.0692 34.3626 42.6688 34.2676 43.2075C34.0996 44.1605 33.7357 44.9721 33.176 45.6425C32.6188 46.299 31.9982 46.8304 31.3141 47.2367C30.6464 47.6317 29.8251 48.0494 28.8502 48.4899C28.1069 48.8287 27.5439 49.114 27.1613 49.3456C26.89 49.5114 26.682 49.6812 26.5374 49.8551L32.9806 50.9912L32.5349 53.5187L22.5905 51.7652L22.722 51.0194ZM38.9273 54.9022C37.8499 54.7122 36.9899 54.3399 36.3472 53.7851C35.7208 53.2189 35.3091 52.363 35.1124 51.2175C34.9294 50.0745 35.0035 48.5637 35.3348 46.6853C35.666 44.8069 36.113 43.362 36.6759 42.3504C37.2526 41.3413 37.9309 40.6847 38.7108 40.3808C39.5069 40.0654 40.4436 40.0028 41.5209 40.1927C42.5983 40.3827 43.4501 40.7607 44.0766 41.3269C44.7169 41.8955 45.1285 42.7514 45.3115 43.8945C45.5107 45.0261 45.4447 46.5312 45.1134 48.4096C44.7822 50.288 44.3283 51.7317 43.7516 52.7409C43.1912 53.7386 42.5129 54.3951 41.7167 54.7105C40.9344 55.0283 40.0046 55.0922 38.9273 54.9022ZM39.3364 52.5818C39.8751 52.6768 40.3081 52.6036 40.6355 52.3623C40.9791 52.1096 41.2528 51.6879 41.4566 51.0972C41.6743 50.509 41.8769 49.6831 42.0644 48.6196L42.3201 47.1694C42.5077 46.1059 42.5997 45.2605 42.5964 44.6333C42.6069 44.0086 42.4927 43.5256 42.2538 43.1844C42.0311 42.8318 41.6505 42.6081 41.1118 42.5131C40.5731 42.4181 40.132 42.497 39.7884 42.7497C39.461 42.991 39.1885 43.4058 38.9708 43.994C38.767 44.5847 38.5713 45.4118 38.3838 46.4753L38.1281 47.9255C37.9405 48.989 37.8415 49.8332 37.8311 50.4579C37.8344 51.0851 37.9474 51.575 38.1701 51.9276C38.409 52.2688 38.7977 52.4868 39.3364 52.5818ZM45.746 55.0792C45.8848 54.2919 46.1817 53.6179 46.6365 53.0573C47.0939 52.4828 47.6125 52.0047 48.1926 51.6227C48.7864 51.2432 49.5431 50.8284 50.4627 50.3782C51.2621 49.9637 51.8937 49.6122 52.3576 49.3238C52.8353 49.0377 53.25 48.705 53.6017 48.3255C54.042 47.8478 54.3218 47.2705 54.4411 46.5937C54.519 46.1517 54.4215 45.7358 54.1484 45.3458C53.8917 44.9445 53.4594 44.6903 52.8517 44.5832C51.4843 44.342 50.685 44.8776 50.4536 46.1897L50.3038 47.0391L47.4863 46.5423C47.4748 46.2839 47.4959 46.0028 47.5495 45.699C47.8028 44.2625 48.4692 43.2692 49.5489 42.7191C50.6424 42.1713 51.9211 42.0266 53.3851 42.2847C54.6696 42.5112 55.6133 42.9339 56.2163 43.5529C56.8192 44.1719 57.1694 44.8104 57.267 45.4685C57.3784 46.129 57.3866 46.7286 57.2916 47.2672C57.1236 48.2202 56.7597 49.0319 56.2 49.7022C55.6428 50.3588 55.0222 50.8902 54.3382 51.2965C53.6704 51.6914 52.8491 52.1091 51.8742 52.5496C51.1309 52.8885 50.5679 53.1737 50.1853 53.4053C49.914 53.5711 49.706 53.7409 49.5614 53.9148L56.0046 55.0509L55.5589 57.5785L45.6145 55.825L45.746 55.0792ZM61.9513 58.962C60.874 58.772 60.014 58.3996 59.3712 57.8448C58.7448 57.2786 58.3332 56.4228 58.1364 55.2773C57.9534 54.1342 58.0276 52.6235 58.3588 50.7451C58.69 48.8667 59.137 47.4217 59.6999 46.4102C60.2766 45.401 60.9549 44.7445 61.7348 44.4405C62.5309 44.1252 63.4676 44.0625 64.545 44.2525C65.6223 44.4424 66.4742 44.8205 67.1006 45.3867C67.7409 45.9553 68.1525 46.8111 68.3355 47.9542C68.5347 49.0859 68.4687 50.5909 68.1375 52.4693C67.8063 54.3477 67.3523 55.7915 66.7756 56.8006C66.2152 57.7984 65.5369 58.4549 64.7407 58.7702C63.9584 59.088 63.0286 59.1519 61.9513 58.962ZM62.3604 56.6416C62.8991 56.7366 63.3321 56.6634 63.6595 56.422C64.0031 56.1693 64.2768 55.7476 64.4807 55.157C64.6983 54.5687 64.9009 53.7429 65.0884 52.6794L65.3441 51.2291C65.5317 50.1656 65.6238 49.3203 65.6204 48.6931C65.6309 48.0683 65.5167 47.5854 65.2778 47.2442C65.0551 46.8916 64.6745 46.6678 64.1358 46.5728C63.5972 46.4779 63.156 46.5567 62.8124 46.8094C62.485 47.0508 62.2125 47.4656 61.9949 48.0538C61.791 48.6445 61.5953 49.4716 61.4078 50.5351L61.1521 51.9853C60.9646 53.0488 60.8656 53.8929 60.8551 54.5177C60.8584 55.1449 60.9714 55.6348 61.1941 55.9873C61.433 56.3285 61.8218 56.5466 62.3604 56.6416Z" fill="white"/>
</svg>
