<svg id="Vrstva_1" data-name="Vrstva 1" xmlns="http://www.w3.org/2000/svg" viewBox="0 0 428.82971 429.92971"><defs><style>.cls-1{fill:#afe2ff;}.cls-1,.cls-4,.cls-5{stroke:#000;stroke-width:2.6297px;}.cls-2{fill:#5ec5ff;}.cls-3{fill:#fafafa;}.cls-4{fill:none;}.cls-5{fill:#ff3a00;}.cls-6{isolation:isolate;}.cls-7{fill:#fff;}</style></defs><path class="cls-1" d="M60.5,51.3H419A12.718,12.718,0,0,1,431.7,64V422.5A12.718,12.718,0,0,1,419,435.2H60.5a12.718,12.718,0,0,1-12.7-12.7V64A12.718,12.718,0,0,1,60.5,51.3Z" transform="translate(-4.18515 -6.58515)"/><path class="cls-2" d="M46.5,37.2H405a12.718,12.718,0,0,1,12.7,12.7V408.4A12.718,12.718,0,0,1,405,421.1H46.5a12.718,12.718,0,0,1-12.7-12.7V49.9A12.59126,12.59126,0,0,1,46.5,37.2Z" transform="translate(-4.18515 -6.58515)"/><path class="cls-3" d="M46.5,37.2H405a12.718,12.718,0,0,1,12.7,12.7V408.4A12.718,12.718,0,0,1,405,421.1H46.5a12.718,12.718,0,0,1-12.7-12.7V49.9A12.59126,12.59126,0,0,1,46.5,37.2Z" transform="translate(-4.18515 -6.58515)"/><path class="cls-4" d="M46.5,37.2H405a12.718,12.718,0,0,1,12.7,12.7V408.4A12.718,12.718,0,0,1,405,421.1H46.5a12.718,12.718,0,0,1-12.7-12.7V49.9A12.59126,12.59126,0,0,1,46.5,37.2Z" transform="translate(-4.18515 -6.58515)"/><path d="M165.8,373.7c-4.1,0-7.3-.8-9.7-2.5a8.12794,8.12794,0,0,1-3.5-6.8l.1-.7h7.5v.4a3.13489,3.13489,0,0,0,1.7,2.9,9.27608,9.27608,0,0,0,4.2.8,11.41741,11.41741,0,0,0,3.9-.6,2.07537,2.07537,0,0,0,1.6-2,2.75246,2.75246,0,0,0-1.7-2.4,33.41107,33.41107,0,0,0-5.2-1.6,49.9144,49.9144,0,0,1-5.9-1.7,10.90121,10.90121,0,0,1-4-2.7,7.11278,7.11278,0,0,1-1.7-4.9,7.30385,7.30385,0,0,1,3.6-6.6,16.81,16.81,0,0,1,9.4-2.4,15.74109,15.74109,0,0,1,8.8,2.2,6.61229,6.61229,0,0,1,3.5,5.8l-.1,1.3h-7.5v-.3a2.39764,2.39764,0,0,0-1.4-2.2,7.3815,7.3815,0,0,0-3.6-.8,8.99216,8.99216,0,0,0-3.6.6,1.85363,1.85363,0,0,0-1.3,1.7,2.30836,2.30836,0,0,0,1.5,2.1,26.35578,26.35578,0,0,0,5,1.3,54.78419,54.78419,0,0,1,6.1,1.7,11.27559,11.27559,0,0,1,4.1,2.7,7.26234,7.26234,0,0,1,1.7,5.2C179.3,370.5,174.8,373.7,165.8,373.7ZM184,343.5h6.6l.6,4.8h.4a10.5387,10.5387,0,0,1,2.5-4,5.35432,5.35432,0,0,1,4-1.5,8.36152,8.36152,0,0,1,2.9.5v7.2h-2.1q-3.75,0-5.4,2.1c-1.1,1.3-1.7,3.4-1.7,6.2V373H184Zm20.7,0h6.6l.5,3.9h.4A8.95273,8.95273,0,0,1,216,344a11.36482,11.36482,0,0,1,5.2-1.2,10.56871,10.56871,0,0,1,8.7,3.9c2.1,2.5,3.1,6.4,3.1,11.6,0,5.1-1,8.9-3.1,11.5a10.00112,10.00112,0,0,1-8.2,3.9,12.86771,12.86771,0,0,1-5.3-1.1,7.94164,7.94164,0,0,1-3.5-3h-.3v13.1h-7.7V343.5Zm14,23.5c2.3,0,3.9-.7,4.9-2a10.70709,10.70709,0,0,0,1.5-6.2v-1c0-2.8-.5-4.8-1.5-6.2s-2.6-2.1-4.9-2.1c-4.2,0-6.3,2.7-6.3,8.2v.9Q212.4,367,218.7,367Zm31.4,6.7c-4.8,0-8.3-1.3-10.7-3.8-2.3-2.5-3.5-6.4-3.5-11.7s1.2-9.2,3.5-11.7c2.4-2.5,5.9-3.8,10.7-3.8,4.4,0,7.6,1.3,9.8,3.8s3.3,6.4,3.3,11.6v1.8H243.8c.1,2.6.6,4.6,1.6,5.8a6.02814,6.02814,0,0,0,4.9,1.9,5.58038,5.58038,0,0,0,3.9-1.3,4.89723,4.89723,0,0,0,1.5-3.8h7.6q0,5.55-3.6,8.4A15.60312,15.60312,0,0,1,250.1,373.7Zm5.1-18.8c0-4.1-1.7-6.1-5.1-6.1a6.01636,6.01636,0,0,0-4.4,1.5,7.23037,7.23037,0,0,0-1.8,4.6Zm12.7-11.4h6.6l.6,3.9h.4a11.31616,11.31616,0,0,1,9.2-4.5c3,0,5.4.8,7.1,2.5,1.8,1.6,2.6,4.3,2.6,7.9V373h-7.7V354.8c0-1.8-.4-3.2-1.3-4a6.15132,6.15132,0,0,0-8.1.7,6.44364,6.44364,0,0,0-1.7,4.5v17h-7.7V343.5Z" transform="translate(-4.18515 -6.58515)"/><circle class="cls-5" cx="42.11485" cy="42.11485" r="40.8"/><g class="cls-6"><path class="cls-7" d="M21.5415,53.55292a6.5322,6.5322,0,0,1,.94727-2.43262,11.0003,11.0003,0,0,1,1.81543-2.12012q.84522-.74706,1.94482-1.583,1.34913-1.05323,2.11963-1.749a8.50791,8.50791,0,0,0,1.38281-1.61621,5.27792,5.27792,0,0,0,.80811-2.02148,2.356,2.356,0,0,0-.14941-1.38575,1.38946,1.38946,0,0,0-1.127-.79492,1.46073,1.46073,0,0,0-1.46289.50586,3.81913,3.81913,0,0,0-.77588,1.84278l-.18652,1.04882L23.709,42.68768a6.08229,6.08229,0,0,1,.105-1.03711,4.88623,4.88623,0,0,1,6.06592-4.416A5.10527,5.10527,0,0,1,33.08447,38.967a4.35155,4.35155,0,0,1,.69629,3.66211,7.134,7.134,0,0,1-1.15576,2.792,13.264,13.264,0,0,1-1.9502,2.28027q-1.05834.9756-2.63183,2.25391-1.35425,1.07813-1.57813,1.30274a5.97015,5.97015,0,0,0-.68359.7246l6.22119,1.1045-.50928,2.86718-10.061-1.7871Z" transform="translate(-4.18515 -6.58515)"/><path class="cls-7" d="M35.396,56.133a5.22975,5.22975,0,0,1-1.1919-3.10254,20.45218,20.45218,0,0,1,.38428-5.583,20.43225,20.43225,0,0,1,1.5625-5.375,5.23548,5.23548,0,0,1,2.187-2.50293,5.25086,5.25086,0,0,1,5.56592,1.002A5.2776,5.2776,0,0,1,45.106,43.68964a20.37637,20.37637,0,0,1-.37989,5.55859A20.36618,20.36618,0,0,1,43.169,54.59491a5.27227,5.27227,0,0,1-2.20313,2.51465A5.26264,5.26264,0,0,1,35.396,56.133Zm4.37548-1.666a4.26668,4.26668,0,0,0,.86622-1.68164,26.93028,26.93028,0,0,0,.729-3.21094l.31836-1.792a27.1306,27.1306,0,0,0,.42187-3.26465,4.28745,4.28745,0,0,0-.23437-1.87793,1.46821,1.46821,0,0,0-2.32959-.41308,4.26655,4.26655,0,0,0-.8667,1.68164,27.04294,27.04294,0,0,0-.72852,3.21093l-.31836,1.791a27.042,27.042,0,0,0-.42187,3.26562,4.28242,4.28242,0,0,0,.23437,1.87793,1.47114,1.47114,0,0,0,2.32959.41309Z" transform="translate(-4.18515 -6.58515)"/><path class="cls-7" d="M44.88818,57.70038a6.5322,6.5322,0,0,1,.94727-2.43262,11.05112,11.05112,0,0,1,1.81543-2.12109q.84594-.74707,1.94482-1.582,1.34913-1.05469,2.12012-1.749a8.52342,8.52342,0,0,0,1.38232-1.61621,5.2787,5.2787,0,0,0,.8086-2.02148,2.36017,2.36017,0,0,0-.1499-1.38672,1.39047,1.39047,0,0,0-1.127-.794,1.45916,1.45916,0,0,0-1.46289.50586,3.81913,3.81913,0,0,0-.77588,1.84278l-.18652,1.04882-3.14893-.55957a6.07294,6.07294,0,0,1,.105-1.03711,4.88623,4.88623,0,0,1,6.06592-4.416,5.10888,5.10888,0,0,1,3.20459,1.73144,4.35455,4.35455,0,0,1,.69629,3.66309,7.134,7.134,0,0,1-1.15576,2.792,13.26445,13.26445,0,0,1-1.9502,2.28028q-1.05834.97558-2.63183,2.25293-1.35425,1.07958-1.57813,1.30371a5.97626,5.97626,0,0,0-.68359.72363l6.22119,1.10547-.50928,2.86719-10.061-1.78711Z" transform="translate(-4.18515 -6.58515)"/><path class="cls-7" d="M56.561,59.77362A6.53208,6.53208,0,0,1,57.5083,57.341a11.0348,11.0348,0,0,1,1.81543-2.12011q.846-.74707,1.94482-1.583,1.34913-1.05323,2.12012-1.749A8.52315,8.52315,0,0,0,64.771,50.27264a5.28068,5.28068,0,0,0,.80859-2.0205,2.35928,2.35928,0,0,0-.1499-1.38672,1.38942,1.38942,0,0,0-1.127-.79492,1.46107,1.46107,0,0,0-1.46289.50585,3.81922,3.81922,0,0,0-.77588,1.84278L61.87744,49.468l-3.14892-.55957a6.08108,6.08108,0,0,1,.105-1.03711,4.88621,4.88621,0,0,1,6.06591-4.416A5.10527,5.10527,0,0,1,68.104,45.18768a4.35156,4.35156,0,0,1,.69629,3.66211,7.134,7.134,0,0,1-1.15576,2.792,13.22181,13.22181,0,0,1-1.95019,2.28028q-1.05835.97559-2.63184,2.2539-1.35425,1.07813-1.57812,1.30274a5.96952,5.96952,0,0,0-.6836.72461L67.022,59.3078,66.5127,62.175l-10.061-1.78711Z" transform="translate(-4.18515 -6.58515)"/></g><g class="cls-6"><path d="M123.65283,295.757q-14.31445-14.98536-14.31006-40.63477V250.2619h33.75v5.66992q0,13.23193,5.26514,20.38575,5.26466,7.15575,15.25488,7.15429,9.44751,0,14.8501-6.88476,5.39795-6.88478,5.3999-20.38477,0-29.16065-22.14013-29.16015H152.813v-27.27h9.44971q8.09985,0,13.23-7.42481,5.12622-7.42236,5.12988-21.19433,0-24.8379-17.00977-24.84083-8.37231,0-12.82519,6.48047-4.45459,6.48048-4.45459,19.44043V177.363h-33.75v-7.56055q0-15.11719,6.48-26.59473a45.58449,45.58449,0,0,1,17.95459-17.82031q11.47338-6.33984,26.32519-6.34473,23.49024,0,37.25977,13.2295,13.77025,13.23339,13.77,37.53027,0,15.38964-6.34473,25.24512a50.0619,50.0619,0,0,1-17.68506,16.335v1.08008a39.28871,39.28871,0,0,1,19.84522,16.1997q7.42236,11.61182,7.4248,29.16016,0,24.29883-14.85009,38.60937-14.85205,14.31445-38.60987,14.31055Q137.9607,310.74237,123.65283,295.757Z" transform="translate(-4.18515 -6.58515)"/><path d="M257.84082,302.23749q-11.61181-8.50488-17.82031-29.56543-6.21387-21.06006-6.21-57.77979,0-36.71484,6.21-57.77929,6.208-21.06006,17.82031-29.56543,11.606-8.5049,29.42969-8.50489,17.54883,0,29.29492,8.63965,11.74512,8.644,17.95508,29.7002,6.208,21.06006,6.21,57.50976,0,36.45045-6.21,57.51026-6.21387,21.06006-17.95508,29.69922-11.74512,8.63817-29.29492,8.64062Q269.45068,310.74237,257.84082,302.23749Zm41.71484-24.97559q4.18361-6.208,5.80469-18.76465,1.62012-12.55517,1.62012-34.15527V205.44305q0-21.59911-1.62012-34.15527-1.62012-12.55518-5.80469-18.76562-4.18944-6.20655-12.28515-6.21-8.09913,0-12.28516,6.21-4.188,6.21532-5.80469,18.76562-1.6201,12.55518-1.62011,34.15527V224.342q0,21.605,1.62011,34.15527,1.62012,12.55518,5.80469,18.76465,4.18359,6.21387,12.28516,6.21Q295.3711,283.47186,299.55566,277.2619Z" transform="translate(-4.18515 -6.58515)"/></g></svg>