<svg width="505" height="508" viewBox="0 0 505 508" fill="none" xmlns="http://www.w3.org/2000/svg">
<rect x="116.526" y="59.9275" width="383.928" height="383.928" rx="12.71" transform="rotate(10.3287 116.526 59.9275)" fill="#AFE2FF" stroke="black" stroke-width="2.62965"/>
<rect x="105.246" y="43.6001" width="383.928" height="383.928" rx="12.71" transform="rotate(10.3287 105.246 43.6001)" fill="#5EC5FF"/>
<rect x="105.246" y="43.6001" width="383.928" height="383.928" rx="12.71" transform="rotate(10.3287 105.246 43.6001)" fill="#FAFAFA"/>
<rect x="105.246" y="43.6001" width="383.928" height="383.928" rx="12.71" transform="rotate(10.3287 105.246 43.6001)" stroke="black" stroke-width="2.62965"/>
<path d="M190.341 397.251L207.634 380.274L194.719 377.92L195.846 371.739L219.743 376.094L219.14 379.405L201.782 396.428L216.076 399.033L214.949 405.215L189.728 400.618L190.341 397.251ZM225.536 407.828C223.291 407.419 221.338 406.455 219.676 404.935C218.014 403.416 217.465 401.111 218.028 398.02C218.705 394.304 220.712 391.952 224.047 390.963C227.389 389.938 231.857 389.934 237.449 390.954L237.822 388.912C238.056 387.624 237.943 386.577 237.482 385.77C237.057 384.971 236.054 384.427 234.472 384.138C232.779 383.83 231.518 383.866 230.688 384.247C229.896 384.635 229.435 385.178 229.308 385.877L229.157 386.705L221.872 385.378C221.875 385.15 221.931 384.742 222.038 384.153C222.481 381.725 223.903 379.969 226.305 378.887C228.744 377.81 231.748 377.598 235.317 378.248C239.291 378.972 242.105 380.321 243.76 382.296C245.452 384.277 246.02 386.794 245.463 389.848L243.13 402.652C243.009 403.314 243.102 403.845 243.41 404.243C243.724 404.604 244.157 404.835 244.709 404.936L246.255 405.217L245.289 410.516C244.004 410.89 242.497 410.919 240.768 410.604C239.259 410.329 238.05 409.767 237.141 408.917C236.268 408.073 235.759 407.011 235.612 405.73L235.281 405.67C233.986 406.726 232.579 407.458 231.06 407.866C229.585 408.243 227.743 408.23 225.536 407.828ZM228.995 402.3C231.129 402.689 232.8 402.385 234.008 401.389C235.223 400.356 236.011 398.846 236.373 396.859L236.534 395.976C229.948 394.776 226.387 395.647 225.85 398.591C225.683 399.511 225.843 400.3 226.331 400.959C226.856 401.625 227.744 402.072 228.995 402.3ZM239.11 368.39L246.45 369.728L246.475 369.903L239.217 375.937L233.422 374.88L239.11 368.39ZM253.832 382.307L260.289 383.483L260.042 388.285L260.428 388.356C261.355 386.814 262.403 385.655 263.57 384.88C264.738 384.104 266.132 383.864 267.75 384.159C268.817 384.353 269.744 384.693 270.53 385.179L269.242 392.243L267.145 391.861C264.68 391.411 262.771 391.767 261.42 392.927C260.074 394.051 259.154 395.974 258.657 398.696L256.103 412.715L248.542 411.337L253.832 382.307ZM254.82 371.253L260.946 372.37L263.343 376.741L267.072 373.486L273.199 374.603L266.046 380.997L259.313 379.77L254.82 371.253ZM274.124 386.005L281.685 387.383L276.394 416.413L268.833 415.035L274.124 386.005ZM281.404 376.098L288.744 377.436L288.769 377.611L281.511 383.645L275.716 382.588L281.404 376.098Z" fill="black"/>
<path d="M255.975 332.518C237.004 329.06 222.769 321.12 213.272 308.698C203.979 296.134 200.967 280.884 204.236 262.947L240.713 269.595C239.047 278.736 239.985 286.302 243.526 292.293C247.24 298.316 253.15 302.066 261.256 303.543C269.19 304.989 275.886 303.447 281.344 298.918C287.007 294.248 290.797 286.652 292.714 276.132C294.474 266.473 293.482 258.719 289.737 252.869C285.991 247.018 280.325 243.402 272.736 242.019C267.562 241.076 262.96 241.395 258.929 242.977C254.899 244.559 251.072 246.98 247.448 250.24L214.571 239.972L239.472 142.938L342.178 161.655L336.426 193.217L265.023 180.204L255.529 219.103C260.139 217.27 265.001 216.018 270.113 215.346C275.256 214.501 281.277 214.707 288.176 215.965C303.353 218.731 314.789 225.894 322.483 237.453C330.381 248.871 332.617 263.98 329.191 282.779C325.671 302.096 317.417 316.095 304.43 324.776C291.444 333.458 275.292 336.038 255.975 332.518Z" fill="black"/>
</svg>
