<svg id="Vrstva_1" data-name="Vrstva 1" xmlns="http://www.w3.org/2000/svg" viewBox="0 0 456.26953 461.36952"><defs><style>.cls-1{fill:#afe2ff;}.cls-1,.cls-4{stroke:#000;stroke-width:2.6297px;}.cls-2{fill:#5ec5ff;}.cls-3{fill:#fafafa;}.cls-4{fill:none;}.cls-5{isolation:isolate;font-size:270px;font-family:ArchivoNarrow-Bold, Archivo Narrow;font-weight:700;}</style></defs><path class="cls-1" d="M129,62.2l352.7,64.3a12.70742,12.70742,0,0,1,10.2,14.8L427.7,494a12.70741,12.70741,0,0,1-14.8,10.2L60.2,439.9A12.70738,12.70738,0,0,1,50,425.1L114.3,72.4A12.5579,12.5579,0,0,1,129,62.2Z" transform="translate(-37.16525 -44.36525)"/><path class="cls-2" d="M117.8,45.9l352.7,64.3A12.70744,12.70744,0,0,1,480.7,125L416.4,477.7a12.7074,12.7074,0,0,1-14.8,10.2L48.9,423.6a12.7074,12.7074,0,0,1-10.2-14.8L103,56.1A12.606,12.606,0,0,1,117.8,45.9Z" transform="translate(-37.16525 -44.36525)"/><path class="cls-3" d="M117.8,45.9l352.7,64.3A12.70744,12.70744,0,0,1,480.7,125L416.4,477.7a12.7074,12.7074,0,0,1-14.8,10.2L48.9,423.6a12.7074,12.7074,0,0,1-10.2-14.8L103,56.1A12.606,12.606,0,0,1,117.8,45.9Z" transform="translate(-37.16525 -44.36525)"/><path class="cls-4" d="M117.8,45.9l352.7,64.3A12.70744,12.70744,0,0,1,480.7,125L416.4,477.7a12.7074,12.7074,0,0,1-14.8,10.2L48.9,423.6a12.7074,12.7074,0,0,1-10.2-14.8L103,56.1A12.606,12.606,0,0,1,117.8,45.9Z" transform="translate(-37.16525 -44.36525)"/><path d="M190.3,397.3l17.3-17-12.9-2.4,1.1-6.2,23.9,4.4-.6,3.3-17.4,17L216,399l-1.1,6.2-25.2-4.6Zm35.2,10.5a12.15467,12.15467,0,0,1-5.9-2.9c-1.7-1.5-2.2-3.8-1.6-6.9.7-3.7,2.7-6.1,6-7.1s7.8-1,13.4,0l.4-2a5.07753,5.07753,0,0,0-.3-3.1c-.4-.8-1.4-1.3-3-1.6a6.60077,6.60077,0,0,0-3.8.1,2.20321,2.20321,0,0,0-1.4,1.6l-.2.8-7.3-1.3c0-.2.1-.6.2-1.2a6.98574,6.98574,0,0,1,4.3-5.3q3.6-1.65,9-.6c4,.7,6.8,2.1,8.4,4a8.58053,8.58053,0,0,1,1.7,7.6l-2.3,12.8a2.03511,2.03511,0,0,0,.3,1.6,1.85817,1.85817,0,0,0,1.3.7l1.5.3-1,5.3a9.62414,9.62414,0,0,1-4.5.1,6.74564,6.74564,0,0,1-3.6-1.7,4.61844,4.61844,0,0,1-1.5-3.2l-.3-.1a10.63949,10.63949,0,0,1-4.2,2.2A15.20321,15.20321,0,0,1,225.5,407.8Zm3.5-5.5a5.84,5.84,0,0,0,5-.9,7.55162,7.55162,0,0,0,2.4-4.5l.2-.9c-6.6-1.2-10.1-.3-10.7,2.6a2.89461,2.89461,0,0,0,.5,2.4A4.00006,4.00006,0,0,0,229,402.3Zm10.1-33.9,7.3,1.3v.2l-7.3,6-5.8-1.1Zm14.7,13.9,6.5,1.2-.2,4.8.4.1a11.9394,11.9394,0,0,1,3.1-3.5,5.46053,5.46053,0,0,1,4.2-.7,7.74127,7.74127,0,0,1,2.8,1l-1.3,7.1-2.1-.4c-2.5-.4-4.4-.1-5.7,1.1-1.3,1.1-2.3,3-2.8,5.8l-2.6,14-7.6-1.4Zm1-11,6.1,1.1,2.4,4.4,3.7-3.3,6.1,1.1L266,381l-6.7-1.2ZM274.1,386l7.6,1.4-5.3,29-7.6-1.4Zm7.3-9.9,7.3,1.3v.2l-7.3,6-5.8-1.1Z" transform="translate(-37.16525 -44.36525)"/><text class="cls-5" transform="translate(148.02103 288.62695) rotate(10.2536)">5</text></svg>