<svg width="434" height="437" viewBox="0 0 434 437" fill="none" xmlns="http://www.w3.org/2000/svg">
<rect x="47.7719" y="51.2781" width="383.928" height="383.928" rx="12.71" fill="#AFE2FF" stroke="black" stroke-width="2.62965"/>
<rect x="33.7471" y="37.2379" width="383.928" height="383.928" rx="12.71" fill="#5EC5FF"/>
<rect x="33.7471" y="37.2379" width="383.928" height="383.928" rx="12.71" fill="#FAFAFA"/>
<rect x="33.7471" y="37.2379" width="383.928" height="383.928" rx="12.71" stroke="black" stroke-width="2.62965"/>
<path d="M165.764 373.673C161.65 373.673 158.415 372.832 156.059 371.149C153.74 369.428 152.581 367.147 152.581 364.305L152.637 363.631H160.098V364.024C160.135 365.333 160.715 366.287 161.837 366.885C162.996 367.446 164.399 367.727 166.044 367.727C167.578 367.727 168.887 367.521 169.971 367.11C171.056 366.698 171.598 366.025 171.598 365.09C171.598 364.043 171.037 363.257 169.915 362.734C168.831 362.21 167.11 361.687 164.754 361.163C162.323 360.602 160.341 360.041 158.808 359.48C157.274 358.882 155.947 357.965 154.825 356.731C153.703 355.497 153.142 353.851 153.142 351.795C153.142 348.915 154.338 346.708 156.732 345.175C159.163 343.604 162.286 342.819 166.1 342.819C169.653 342.819 172.589 343.548 174.908 345.007C177.227 346.428 178.386 348.372 178.386 350.841L178.33 352.131H170.869V351.795C170.869 350.822 170.401 350.074 169.466 349.551C168.569 349.027 167.353 348.765 165.82 348.765C164.287 348.765 163.071 348.971 162.174 349.382C161.276 349.794 160.827 350.373 160.827 351.121C160.827 352.056 161.332 352.748 162.342 353.197C163.389 353.646 165.053 354.095 167.335 354.543C169.84 355.104 171.879 355.665 173.449 356.226C175.02 356.787 176.385 357.704 177.545 358.975C178.704 360.247 179.284 361.967 179.284 364.136C179.284 370.494 174.777 373.673 165.764 373.673ZM184.033 343.492H190.597L191.214 348.26H191.607C192.243 346.577 193.065 345.25 194.075 344.277C195.085 343.305 196.413 342.819 198.058 342.819C199.143 342.819 200.115 342.987 200.975 343.324V350.504H198.843C196.338 350.504 194.524 351.196 193.402 352.58C192.28 353.926 191.719 355.983 191.719 358.751V373H184.033V343.492ZM204.715 343.492H211.279L211.784 347.363H212.177C213.112 345.867 214.365 344.745 215.935 343.997C217.506 343.211 219.245 342.819 221.153 342.819C224.892 342.819 227.791 344.109 229.848 346.69C231.905 349.233 232.933 353.104 232.933 358.302C232.933 363.388 231.886 367.222 229.792 369.802C227.735 372.383 224.986 373.673 221.545 373.673C219.563 373.673 217.805 373.318 216.272 372.607C214.776 371.897 213.598 370.887 212.738 369.578H212.401V382.705H204.715V343.492ZM218.684 366.997C220.966 366.997 222.592 366.324 223.565 364.978C224.537 363.594 225.023 361.518 225.023 358.751V357.741C225.023 354.973 224.537 352.917 223.565 351.57C222.592 350.186 220.966 349.494 218.684 349.494C214.495 349.494 212.401 352.243 212.401 357.741V358.639C212.401 364.211 214.495 366.997 218.684 366.997ZM250.062 373.673C245.312 373.673 241.759 372.42 239.403 369.915C237.084 367.409 235.925 363.519 235.925 358.246C235.925 352.973 237.084 349.083 239.403 346.577C241.759 344.072 245.312 342.819 250.062 342.819C254.438 342.819 257.71 344.09 259.879 346.633C262.049 349.139 263.133 353.01 263.133 358.246V360.041H243.723C243.798 362.659 244.321 364.604 245.294 365.875C246.266 367.11 247.893 367.727 250.174 367.727C251.782 367.727 253.073 367.278 254.045 366.38C255.055 365.483 255.56 364.211 255.56 362.566H263.133C263.133 366.268 261.936 369.054 259.543 370.924C257.149 372.757 253.989 373.673 250.062 373.673ZM255.167 354.936C255.167 350.86 253.465 348.821 250.062 348.821C248.117 348.821 246.64 349.326 245.63 350.336C244.658 351.346 244.059 352.879 243.835 354.936H255.167ZM267.939 343.492H274.502L275.063 347.363H275.456C277.85 344.333 280.916 342.819 284.656 342.819C287.686 342.819 290.061 343.641 291.781 345.287C293.539 346.933 294.418 349.569 294.418 353.197V373H286.732V354.824C286.732 352.991 286.302 351.664 285.442 350.841C284.582 350.018 283.31 349.607 281.627 349.607C279.907 349.607 278.467 350.224 277.307 351.458C276.185 352.655 275.624 354.151 275.624 355.946V373H267.939V343.492Z" fill="black"/>
<path d="M158.63 295.156C137.944 295.156 121.99 290.335 110.771 280.693C99.5507 270.875 93.9408 257.639 93.9408 240.985V236.251H130.493V241.774C130.493 249.487 132.86 255.448 137.593 259.655C142.326 263.687 149.163 265.704 158.104 265.704C166.168 265.704 172.567 263.687 177.301 259.655C182.034 255.448 184.401 249.224 184.401 240.985C184.401 231.343 181.771 224.593 176.512 220.737C171.252 216.88 164.24 214.951 155.475 214.951H142.063V185.499H156.263C163.451 185.499 169.324 183.396 173.882 179.188C178.44 174.805 180.719 168.494 180.719 160.255C180.719 152.716 178.703 147.106 174.671 143.425C170.814 139.743 165.292 137.903 158.104 137.903C150.566 137.903 144.693 139.831 140.486 143.688C136.278 147.369 134.174 152.892 134.174 160.255V165.251H97.6223V157.888C97.6223 148.071 100.164 139.48 105.248 132.117C110.332 124.579 117.345 118.794 126.285 114.762C135.402 110.554 145.745 108.451 157.315 108.451C175.723 108.451 190.361 112.746 201.23 121.336C212.275 129.926 217.797 142.11 217.797 157.888C217.797 167.881 215.255 176.12 210.171 182.607C205.263 188.918 198.338 194.177 189.397 198.385V199.436C199.214 202.417 207.016 207.676 212.801 215.214C218.586 222.753 221.479 232.219 221.479 243.614C221.479 254.133 218.761 263.337 213.327 271.226C208.067 278.939 200.704 284.9 191.238 289.107C181.771 293.14 170.902 295.156 158.63 295.156ZM248.213 262.548H290.55V155.258H247.95V132.906C255.839 132.03 265.481 129.575 276.876 125.543C288.446 121.511 298.79 116.866 307.906 111.606H326.576V262.548H365.232V292H248.213V262.548Z" fill="black"/>
<circle cx="46.2522" cy="48.7413" r="40.7595" transform="rotate(10 46.2522 48.7413)" fill="#FF3A00" stroke="black" stroke-width="2.62965"/>
<path d="M22.722 51.0194C22.8608 50.2321 23.1576 49.5582 23.6125 48.9975C24.0698 48.4231 24.5885 47.9449 25.1685 47.563C25.7624 47.1835 26.5191 46.7686 27.4387 46.3184C28.2381 45.904 28.8697 45.5525 29.3336 45.264C29.8112 44.978 30.2259 44.6452 30.5777 44.2658C31.0179 43.788 31.2977 43.2107 31.4171 42.5339C31.495 42.092 31.3975 41.676 31.1244 41.2861C30.8676 40.8848 30.4354 40.6306 29.8277 40.5234C28.4603 40.2823 27.661 40.8178 27.4296 42.1299L27.2798 42.9793L24.4622 42.4825C24.4508 42.2242 24.4719 41.9431 24.5255 41.6392C24.7788 40.2028 25.4452 39.2095 26.5249 38.6593C27.6183 38.1116 28.8971 37.9668 30.3611 38.2249C31.6456 38.4514 32.5893 38.8742 33.1922 39.4932C33.7951 40.1122 34.1454 40.7507 34.243 41.4087C34.3544 42.0692 34.3626 42.6688 34.2676 43.2075C34.0996 44.1605 33.7357 44.9721 33.176 45.6425C32.6188 46.299 31.9982 46.8304 31.3141 47.2367C30.6464 47.6317 29.8251 48.0494 28.8502 48.4899C28.1069 48.8287 27.5439 49.114 27.1613 49.3456C26.89 49.5114 26.682 49.6812 26.5374 49.8551L32.9806 50.9912L32.5349 53.5187L22.5905 51.7652L22.722 51.0194ZM38.9273 54.9022C37.8499 54.7122 36.9899 54.3399 36.3472 53.7851C35.7208 53.2189 35.3091 52.363 35.1124 51.2175C34.9294 50.0745 35.0035 48.5637 35.3348 46.6853C35.666 44.8069 36.113 43.362 36.6759 42.3504C37.2526 41.3413 37.9309 40.6847 38.7108 40.3808C39.5069 40.0654 40.4436 40.0028 41.5209 40.1927C42.5983 40.3827 43.4501 40.7607 44.0766 41.3269C44.7169 41.8955 45.1285 42.7514 45.3115 43.8945C45.5107 45.0261 45.4447 46.5312 45.1134 48.4096C44.7822 50.288 44.3283 51.7317 43.7516 52.7409C43.1912 53.7386 42.5129 54.3951 41.7167 54.7105C40.9344 55.0283 40.0046 55.0922 38.9273 54.9022ZM39.3364 52.5818C39.8751 52.6768 40.3081 52.6036 40.6355 52.3623C40.9791 52.1096 41.2528 51.6879 41.4566 51.0972C41.6743 50.509 41.8769 49.6831 42.0644 48.6196L42.3201 47.1694C42.5077 46.1059 42.5997 45.2605 42.5964 44.6333C42.6069 44.0086 42.4927 43.5256 42.2538 43.1844C42.0311 42.8318 41.6505 42.6081 41.1118 42.5131C40.5731 42.4181 40.132 42.497 39.7884 42.7497C39.461 42.991 39.1885 43.4058 38.9708 43.994C38.767 44.5847 38.5713 45.4118 38.3838 46.4753L38.1281 47.9255C37.9405 48.989 37.8415 49.8332 37.8311 50.4579C37.8344 51.0851 37.9474 51.575 38.1701 51.9276C38.409 52.2688 38.7977 52.4868 39.3364 52.5818ZM45.746 55.0792C45.8848 54.2919 46.1817 53.6179 46.6365 53.0573C47.0939 52.4828 47.6125 52.0047 48.1926 51.6227C48.7864 51.2432 49.5431 50.8284 50.4627 50.3782C51.2621 49.9637 51.8937 49.6122 52.3576 49.3238C52.8353 49.0377 53.25 48.705 53.6017 48.3255C54.042 47.8478 54.3218 47.2705 54.4411 46.5937C54.519 46.1517 54.4215 45.7358 54.1484 45.3458C53.8917 44.9445 53.4594 44.6903 52.8517 44.5832C51.4843 44.342 50.685 44.8776 50.4536 46.1897L50.3038 47.0391L47.4863 46.5423C47.4748 46.2839 47.4959 46.0028 47.5495 45.699C47.8028 44.2625 48.4692 43.2692 49.5489 42.7191C50.6424 42.1713 51.9211 42.0266 53.3851 42.2847C54.6696 42.5112 55.6133 42.9339 56.2163 43.5529C56.8192 44.1719 57.1694 44.8104 57.267 45.4685C57.3784 46.129 57.3866 46.7286 57.2916 47.2672C57.1236 48.2202 56.7597 49.0319 56.2 49.7022C55.6428 50.3588 55.0222 50.8902 54.3382 51.2965C53.6704 51.6914 52.8491 52.1091 51.8742 52.5496C51.1309 52.8885 50.5679 53.1737 50.1853 53.4053C49.914 53.5711 49.706 53.7409 49.5614 53.9148L56.0046 55.0509L55.5589 57.5785L45.6145 55.825L45.746 55.0792ZM58.4058 55.6879L61.7413 56.2761L63.2318 47.8233L59.8755 47.2315L60.186 45.4705C60.8197 45.511 61.6135 45.4516 62.5672 45.2923C63.5348 45.1353 64.4142 44.913 65.2055 44.6253L66.6765 44.8847L64.5796 56.7765L67.6251 57.3135L67.2159 59.6339L57.9966 58.0083L58.4058 55.6879Z" fill="white"/>
</svg>
